<svg width="24" height="24" viewBox="0 0 24 24" fill="none" xmlns="http://www.w3.org/2000/svg">
<path d="M22.7483 8.30561C22.1621 6.73027 21.1059 5.51347 19.6938 4.78662C19.4234 4.65054 19.194 4.44512 19.0291 4.19134C18.8641 3.93755 18.7695 3.64452 18.7549 3.3422L18.7488 3.11251C18.7466 3.02891 18.7165 2.94845 18.6634 2.8839C18.6102 2.81935 18.537 2.77442 18.4554 2.75626C18.3738 2.73809 18.2884 2.74773 18.2129 2.78364C18.1374 2.81955 18.076 2.87966 18.0386 2.95444L17.9358 3.15938C17.7943 3.42701 17.5843 3.65227 17.3272 3.81214C17.0701 3.97201 16.7752 4.06074 16.4726 4.06928C14.7855 4.13191 13.2447 4.87859 12.0476 6.12867C11.5194 4.91601 10.6931 3.85663 9.64555 3.04905C8.59802 2.24147 7.36328 1.71192 6.05615 1.50964L1.18233 0.754665C1.11948 0.744928 1.05519 0.751336 0.995497 0.773285C0.935807 0.795234 0.882679 0.832003 0.84111 0.880135C0.799541 0.928268 0.770896 0.986181 0.757868 1.04843C0.744841 1.11068 0.747859 1.17522 0.766638 1.23598L2.22356 5.94777C2.82598 7.8964 4.16337 9.53394 5.95237 10.5135C5.57262 10.6809 5.20678 10.8782 4.85831 11.1036C3.44817 12.0183 2.49004 13.3137 2.08753 14.8501C2.01345 15.1436 1.86275 15.4122 1.65084 15.6284C1.43893 15.8446 1.17342 16.0006 0.881435 16.0805L0.658966 16.1363C0.577796 16.1566 0.50573 16.2034 0.45423 16.2693C0.402731 16.3352 0.374756 16.4165 0.374756 16.5002C0.374756 16.5838 0.402731 16.6651 0.45423 16.731C0.50573 16.7969 0.577796 16.8438 0.658966 16.864L0.881435 16.9198C1.17341 16.9997 1.43892 17.1557 1.65083 17.3719C1.86274 17.5881 2.01344 17.8567 2.08753 18.1502C2.49004 19.6866 3.44817 20.982 4.85831 21.8967C6.22364 22.7822 7.91512 23.2502 9.7499 23.2502C12.9021 23.2502 15.5158 21.9072 16.7846 19.6937C16.7915 19.6937 16.7986 19.6944 16.8053 19.6944C16.9297 19.6943 17.0538 19.6843 17.1766 19.6642C20.0114 19.2023 22.2451 16.7922 23.0062 13.3745C23.4051 11.5835 23.3159 9.83076 22.7483 8.30561ZM11.4988 6.76838C11.058 7.34595 10.691 7.97623 10.4062 8.64462L10.0987 8.37912L10.1768 4.56926C10.7472 5.21605 11.1952 5.96123 11.4988 6.76838ZM3.26175 6.56953L6.1305 5.94318L7.16845 6.83953L3.7207 7.41943C3.54859 7.14688 3.39526 6.86293 3.26175 6.56953ZM3.97894 4.08513L2.51676 4.357L1.86942 2.26345L3.97894 4.08513ZM2.35959 1.69579L4.52498 2.03127L4.46911 3.51751L2.35959 1.69579ZM2.94009 5.72619L2.73975 5.07828L4.70583 4.71293L5.42086 5.33047L2.98481 5.86237C2.96976 5.81723 2.9542 5.7719 2.94009 5.72619ZM7.7302 2.77655L7.65853 6.27192L6.62058 5.37556L6.82251 2.44626C7.13224 2.53559 7.4355 2.64594 7.7302 2.77655ZM8.47256 3.15844C8.81421 3.3612 9.13825 3.59225 9.44128 3.84915L9.36159 7.74255L8.39597 6.90849L8.47256 3.15844ZM6.08254 2.27521L5.91108 4.76281L5.196 4.14527L5.271 2.14692L5.94131 2.25079C5.98861 2.2581 6.03553 2.26692 6.08254 2.27521ZM4.20665 8.09828L7.90547 7.47615L8.87109 8.31016L5.0309 8.95611C4.73265 8.69372 4.45693 8.40677 4.20665 8.09828ZM5.85136 9.57871L9.60839 8.94678L10.1212 9.38966C10.0809 9.50944 10.0427 9.63085 10.0066 9.75388C9.92133 9.75191 9.83597 9.75008 9.7499 9.75008C8.79432 9.74548 7.84324 9.88131 6.92714 10.1532C6.55267 9.99305 6.19274 9.80083 5.85136 9.57871ZM5.26645 11.7329C5.80796 11.3847 6.3931 11.1095 7.00669 10.9146C7.01765 10.9116 7.0283 10.9078 7.03894 10.9038C7.91655 10.6311 8.83089 10.4949 9.7499 10.5001C12.9381 10.5001 15.5093 11.976 16.4601 14.3519C16.5842 14.6577 16.6065 14.9953 16.5236 15.3147C16.4407 15.6341 16.2571 15.9183 15.9999 16.1252H15.6219C15.721 15.8438 15.7633 15.5455 15.7462 15.2476C15.7291 14.9497 15.653 14.6582 15.5223 14.39C15.3916 14.1218 15.2089 13.8822 14.9848 13.6852C14.7608 13.4882 14.4998 13.3376 14.2171 13.2423C13.8691 12.7703 13.3416 12.3969 12.7163 12.1832C12.3408 12.0536 11.9452 11.9922 11.548 12.0019C11.0536 11.5282 10.3021 11.2501 9.49631 11.2501C8.67201 11.2501 7.90725 11.5399 7.41347 12.0322C7.12222 12.0585 6.83562 12.1225 6.5609 12.2228C5.60864 12.5679 4.91404 13.2734 4.73095 14.0595C4.3272 14.2328 3.98334 14.5211 3.74222 14.8884C3.50109 15.2557 3.37335 15.6858 3.3749 16.1252H2.21269C2.50052 15.8195 2.70696 15.4464 2.81306 15.0402C3.16739 13.6876 4.01573 12.5439 5.26645 11.7329ZM8.51489 19.2351L8.14833 18.8685C7.83527 18.5543 7.41354 18.3724 6.97022 18.3602L5.26223 18.304C5.23591 18.3032 5.20958 18.3052 5.18367 18.3098C5.18133 18.309 5.17898 18.3079 5.17678 18.3071C4.87121 18.2126 4.60408 18.0224 4.41472 17.7646C4.22535 17.5068 4.12376 17.195 4.1249 16.8752H14.7996C14.9301 17.1017 14.9992 17.3585 14.9999 17.6199C15.0006 17.8814 14.9329 18.1385 14.8036 18.3658L12.462 18.3717C12.1402 18.372 11.8249 18.462 11.5515 18.6317C11.2781 18.8014 11.0575 19.044 10.9145 19.3322C10.892 19.3763 10.8785 19.4244 10.8747 19.4738C10.8709 19.5231 10.8769 19.5727 10.8924 19.6198C10.9078 19.6668 10.9325 19.7103 10.9648 19.7477C10.9972 19.7852 11.0366 19.8158 11.0809 19.838C11.1251 19.8601 11.1733 19.8733 11.2227 19.8767C11.2721 19.8801 11.3217 19.8737 11.3685 19.8579C11.4154 19.8421 11.4587 19.8171 11.4959 19.7845C11.5331 19.7518 11.5635 19.7121 11.5853 19.6677C11.6665 19.5039 11.7918 19.3661 11.9471 19.2696C12.1024 19.1732 12.2815 19.122 12.4643 19.1217L13.7858 19.1184C13.7393 19.1472 13.6997 19.1858 13.6697 19.2316C13.4202 19.6135 12.9843 19.9327 12.4736 20.1072C12.1397 20.224 11.7849 20.2693 11.4324 20.2401C11.3732 20.2345 11.3135 20.2431 11.2582 20.2652C11.203 20.2872 11.1538 20.3222 11.1147 20.367C10.7743 20.7575 10.1542 20.9998 9.49631 20.9998C8.83275 20.9998 8.20992 20.7543 7.87087 20.359C7.83724 20.3197 7.79587 20.2879 7.74935 20.2654C7.70283 20.243 7.65217 20.2303 7.60055 20.2284C7.33267 20.2171 7.06817 20.1644 6.81647 20.072C6.2535 19.868 5.79394 19.4848 5.57395 19.0642L6.94739 19.1094C7.19977 19.1161 7.43994 19.2195 7.61822 19.3982L7.98478 19.7648C8.01945 19.8003 8.06082 19.8285 8.10648 19.8479C8.15214 19.8673 8.20119 19.8774 8.25079 19.8777C8.30038 19.8779 8.34955 19.8684 8.39542 19.8495C8.4413 19.8307 8.48299 19.8029 8.51806 19.7678C8.55313 19.7328 8.5809 19.6911 8.59976 19.6452C8.61862 19.5993 8.62819 19.5502 8.62791 19.5006C8.62764 19.451 8.61753 19.4019 8.59817 19.3563C8.57881 19.3106 8.55058 19.2692 8.51512 19.2346L8.51489 19.2351ZM5.17678 14.6932C5.17922 14.6925 5.18147 14.6912 5.18386 14.6904C5.20551 14.6944 5.22747 14.6964 5.24948 14.6965H5.26204L6.9683 14.6402C7.41231 14.6285 7.83482 14.4465 8.14842 14.132L8.51498 13.7654C8.55044 13.7307 8.57867 13.6893 8.59803 13.6436C8.61739 13.598 8.6275 13.5489 8.62777 13.4993C8.62805 13.4497 8.61848 13.4006 8.59962 13.3547C8.58076 13.3088 8.55299 13.2671 8.51792 13.2321C8.48284 13.197 8.44116 13.1692 8.39528 13.1504C8.34941 13.1315 8.30024 13.122 8.25065 13.1223C8.20105 13.1225 8.152 13.1327 8.10634 13.152C8.06068 13.1714 8.01931 13.1996 7.98464 13.2351L7.61808 13.6016C7.43931 13.7808 7.19843 13.8842 6.94542 13.8906L5.57386 13.9357C5.79389 13.5152 6.25354 13.1321 6.81637 12.9279C7.06807 12.8355 7.33258 12.7828 7.60045 12.7715C7.65208 12.7696 7.70274 12.757 7.74925 12.7345C7.79577 12.712 7.83715 12.6802 7.87078 12.6409C8.20992 12.2457 8.83275 12.0001 9.49631 12.0001C10.1542 12.0001 10.7743 12.2426 11.1147 12.6329C11.1538 12.6777 11.203 12.7126 11.2583 12.7347C11.3135 12.7567 11.3732 12.7654 11.4324 12.7599C11.7849 12.7307 12.1397 12.7759 12.4736 12.8927C12.9843 13.0672 13.4202 13.3864 13.6697 13.7684C13.6997 13.8141 13.7393 13.8528 13.7858 13.8816L12.4649 13.8782C12.282 13.8781 12.1028 13.8269 11.9474 13.7304C11.792 13.634 11.6666 13.4961 11.5853 13.3323C11.5403 13.2441 11.4624 13.1773 11.3684 13.1464C11.2744 13.1155 11.172 13.1229 11.0835 13.1672C10.995 13.2115 10.9276 13.2889 10.8959 13.3827C10.8643 13.4764 10.8709 13.5789 10.9145 13.6677C11.0576 13.956 11.2783 14.1986 11.5518 14.3683C11.8252 14.538 12.1406 14.628 12.4625 14.6282L14.8036 14.6341C14.9329 14.8614 15.0006 15.1185 14.9999 15.38C14.9992 15.6415 14.9301 15.8982 14.7996 16.1248L4.1249 16.1252C4.12376 15.8053 4.22535 15.4935 4.41472 15.2357C4.60408 14.9779 4.87121 14.7878 5.17678 14.6932ZM9.7499 22.5002C8.0603 22.5002 6.50995 22.0739 5.26645 21.2674C4.01573 20.4565 3.16739 19.3127 2.81306 17.9601C2.70696 17.5539 2.50052 17.1808 2.21269 16.8752H3.3749C3.37335 17.3145 3.50109 17.7447 3.74222 18.112C3.98334 18.4793 4.3272 18.7675 4.73095 18.9408C4.91404 19.7269 5.60864 20.4324 6.5609 20.7776C6.83562 20.8778 7.12222 20.9419 7.41347 20.9682C7.90701 21.4604 8.67201 21.7502 9.49631 21.7502C10.3021 21.7502 11.0536 21.4721 11.5478 20.9985C11.945 21.0083 12.3406 20.947 12.7162 20.8174C13.3414 20.6037 13.869 20.2303 14.2169 19.7583C14.4997 19.663 14.7607 19.5125 14.9848 19.3154C15.2089 19.1184 15.3916 18.8788 15.5223 18.6106C15.6531 18.3423 15.7292 18.0508 15.7463 17.7529C15.7634 17.4549 15.7211 17.1566 15.6219 16.8752H15.9999C16.2571 17.082 16.4407 17.3662 16.5236 17.6856C16.6065 18.005 16.5842 18.3427 16.4601 18.6484C15.5093 21.0243 12.9381 22.5002 9.7499 22.5002ZM22.2742 13.2114C21.5912 16.2783 19.639 18.4474 17.1653 18.9037C17.2637 18.6511 17.317 18.3833 17.3226 18.1123L18.1939 17.1049C18.4053 16.8602 18.6038 16.6047 18.7885 16.3393C18.8448 16.2576 18.8664 16.157 18.8487 16.0594C18.8309 15.9619 18.7752 15.8753 18.6938 15.8187C18.6124 15.7621 18.5119 15.74 18.4143 15.7573C18.3166 15.7746 18.2298 15.8299 18.1728 15.911C18.0031 16.1548 17.8208 16.3895 17.6266 16.6142L17.1413 17.1752C17.0349 16.9255 16.8848 16.6969 16.6979 16.5002C16.9992 16.1823 17.2026 15.7844 17.2839 15.3541C17.3652 14.9238 17.3209 14.4791 17.1564 14.0732C16.9994 13.6818 16.8022 13.3077 16.568 12.957L17.264 9.8316C17.2751 9.78339 17.2765 9.73346 17.2682 9.68469C17.2599 9.63592 17.2421 9.58927 17.2157 9.54743C17.1893 9.50559 17.1549 9.46938 17.1145 9.4409C17.074 9.41241 17.0283 9.39221 16.98 9.38146C16.9318 9.3707 16.8818 9.36961 16.8331 9.37824C16.7844 9.38687 16.7379 9.40505 16.6962 9.43174C16.6546 9.45843 16.6186 9.49309 16.5904 9.53374C16.5622 9.57438 16.5423 9.62021 16.5319 9.66857L15.9694 12.1952C15.2298 11.3894 14.2709 10.7586 13.1553 10.3399C13.376 9.67586 13.6783 9.04182 14.0553 8.45229C14.0818 8.4108 14.0999 8.36449 14.1086 8.316C14.1172 8.26751 14.1162 8.2178 14.1056 8.1697C14.0951 8.12159 14.0751 8.07604 14.0469 8.03565C14.0188 7.99525 13.9829 7.9608 13.9414 7.93427C13.8999 7.90773 13.8536 7.88962 13.8051 7.88098C13.7566 7.87234 13.7069 7.87334 13.6588 7.88391C13.6107 7.89448 13.5652 7.91443 13.5248 7.9426C13.4844 7.97078 13.4499 8.00664 13.4234 8.04813C13.0124 8.69121 12.6829 9.38288 12.4425 10.1072C11.8973 9.95594 11.3399 9.85306 10.7767 9.79977C11.7054 6.85392 13.9148 4.91492 16.5006 4.81892C17.1205 4.79747 17.71 4.54534 18.1537 4.11194C18.3716 4.69269 18.7985 5.17117 19.3507 5.45366C20.5938 6.09346 21.5257 7.17015 22.0456 8.56732C22.5623 9.95634 22.6414 11.5622 22.2742 13.2114Z" fill="#FB6D3A"/>
<path d="M17.7311 6.00896C17.634 5.98735 17.5323 6.00519 17.4484 6.05855C17.3645 6.11191 17.3052 6.19642 17.2836 6.29349L16.866 8.1685C16.8549 8.2167 16.8535 8.26663 16.8617 8.3154C16.87 8.36417 16.8879 8.41082 16.9143 8.45266C16.9407 8.4945 16.9751 8.53071 17.0155 8.5592C17.056 8.58768 17.1016 8.60788 17.1499 8.61864C17.1982 8.62939 17.2481 8.63048 17.2969 8.62185C17.3456 8.61322 17.3921 8.59504 17.4337 8.56835C17.4754 8.54167 17.5114 8.507 17.5396 8.46636C17.5677 8.42571 17.5876 8.37989 17.598 8.33153L18.0156 6.45652C18.0263 6.40845 18.0274 6.35875 18.0189 6.31024C18.0104 6.26173 17.9925 6.21537 17.966 6.17381C17.9396 6.13225 17.9053 6.0963 17.8649 6.06802C17.8246 6.03973 17.7791 6.01966 17.7311 6.00896Z" fill="#FB6D3A"/>
<path d="M15.901 5.34964L14.9307 6.24682C14.7156 6.44572 14.5077 6.65717 14.313 6.87523C14.2799 6.91192 14.2544 6.95478 14.238 7.00135C14.2215 7.04792 14.2144 7.09729 14.2171 7.1466C14.2198 7.19592 14.2322 7.24423 14.2536 7.28874C14.275 7.33326 14.305 7.3731 14.3418 7.406C14.3786 7.43889 14.4216 7.46419 14.4683 7.48042C14.5149 7.49666 14.5643 7.50353 14.6136 7.50062C14.6629 7.49772 14.7112 7.4851 14.7556 7.46349C14.8 7.44189 14.8397 7.41173 14.8724 7.37473C15.0513 7.17448 15.2422 6.98023 15.4396 6.79751L16.4099 5.90032C16.4466 5.86704 16.4764 5.82681 16.4974 5.78196C16.5185 5.73712 16.5305 5.68854 16.5326 5.63904C16.5348 5.58954 16.5272 5.5401 16.5101 5.49358C16.4931 5.44706 16.467 5.40437 16.4334 5.36799C16.3997 5.33161 16.3592 5.30226 16.3142 5.28162C16.2691 5.26099 16.2204 5.24949 16.1709 5.24778C16.1214 5.24607 16.072 5.2542 16.0257 5.27168C15.9793 5.28916 15.9369 5.31566 15.9008 5.34964H15.901Z" fill="#FB6D3A"/>
<path d="M20.063 11.7333C20.0143 11.7261 19.9647 11.7285 19.9169 11.7404C19.8691 11.7524 19.8242 11.7736 19.7846 11.8029C19.745 11.8322 19.7116 11.8691 19.6863 11.9113C19.6609 11.9535 19.6442 12.0003 19.6369 12.049L19.5958 12.325C19.464 13.2118 19.1918 14.072 18.7896 14.8732C18.7668 14.9173 18.7529 14.9655 18.7488 15.015C18.7447 15.0645 18.7505 15.1143 18.7659 15.1615C18.7812 15.2087 18.8058 15.2525 18.8381 15.2901C18.8705 15.3278 18.91 15.3587 18.9544 15.3809C18.9988 15.4032 19.0472 15.4164 19.0967 15.4198C19.1462 15.4233 19.196 15.4168 19.243 15.4009C19.29 15.3849 19.3334 15.3598 19.3706 15.3269C19.4079 15.2941 19.4382 15.2542 19.4599 15.2095C19.8978 14.3372 20.1941 13.4008 20.3375 12.4354L20.3787 12.1595C20.3933 12.0612 20.3683 11.961 20.3091 11.8811C20.2499 11.8011 20.1614 11.748 20.063 11.7333Z" fill="#FB6D3A"/>
<path d="M20.358 9.31394C20.3367 9.18363 20.3123 9.05224 20.2854 8.92338C20.2755 8.87502 20.2561 8.82908 20.2284 8.78821C20.2007 8.74734 20.1653 8.71234 20.124 8.68522C20.0828 8.65809 20.0366 8.63938 19.9881 8.63015C19.9396 8.62092 19.8897 8.62135 19.8414 8.63143C19.7931 8.64151 19.7472 8.66103 19.7065 8.68887C19.6657 8.71671 19.6308 8.75233 19.6039 8.79368C19.5769 8.83502 19.5584 8.88129 19.5493 8.92982C19.5403 8.97835 19.5409 9.02819 19.5512 9.07647C19.5759 9.19479 19.5983 9.31554 19.6179 9.4353C19.6762 9.79176 19.7117 10.1516 19.7242 10.5125C19.7275 10.6097 19.7684 10.7017 19.8383 10.7693C19.9081 10.8368 20.0015 10.8746 20.0987 10.8747H20.1118C20.2112 10.8713 20.3052 10.8285 20.373 10.7558C20.4409 10.6831 20.4771 10.5865 20.4737 10.4871C20.4601 10.0941 20.4215 9.70238 20.3581 9.31432L20.358 9.31394Z" fill="#FB6D3A"/>
<path d="M19.2514 7.99915C19.2677 8.04563 19.293 8.08843 19.3258 8.12513C19.3587 8.16183 19.3985 8.19169 19.4429 8.21302C19.4873 8.23435 19.5354 8.24672 19.5846 8.24944C19.6338 8.25215 19.683 8.24515 19.7295 8.22884C19.776 8.21253 19.8188 8.18722 19.8555 8.15436C19.8922 8.12151 19.922 8.08174 19.9434 8.03735C19.9647 7.99295 19.9771 7.94478 19.9798 7.8956C19.9825 7.84642 19.9755 7.79719 19.9592 7.75071C19.9099 7.61009 19.8564 7.46946 19.8002 7.33109L19.3537 6.2336C19.3159 6.14198 19.2433 6.06906 19.1519 6.03079C19.0604 5.99252 18.9576 5.992 18.8657 6.02936C18.7739 6.06672 18.7006 6.13891 18.6619 6.23015C18.6232 6.32139 18.6221 6.42426 18.659 6.51626L19.1055 7.61374C19.1568 7.74064 19.2059 7.87024 19.2514 7.99915Z" fill="#FB6D3A"/>
<path d="M8.51494 15.6402L8.73464 15.4205C9.00388 15.1513 9.36904 15 9.74979 15C10.1305 15 10.4957 15.1513 10.7649 15.4205L10.9846 15.6402C11.0194 15.675 11.0608 15.7026 11.1063 15.7214C11.1518 15.7403 11.2005 15.75 11.2498 15.75C11.299 15.75 11.3478 15.7403 11.3933 15.7214C11.4388 15.7026 11.4801 15.675 11.5149 15.6402C11.5498 15.6053 11.5774 15.564 11.5962 15.5185C11.6151 15.473 11.6248 15.4242 11.6248 15.375C11.6248 15.3257 11.6151 15.277 11.5962 15.2315C11.5774 15.186 11.5498 15.1446 11.5149 15.1098L11.2953 14.8902C10.8854 14.4803 10.3295 14.25 9.74979 14.25C9.17012 14.25 8.61419 14.4803 8.2043 14.8902L7.98459 15.1099C7.91427 15.1802 7.87476 15.2756 7.87476 15.375C7.87476 15.4745 7.91427 15.5699 7.98459 15.6402C8.05492 15.7105 8.15031 15.75 8.24977 15.75C8.34922 15.75 8.44461 15.7105 8.51494 15.6402Z" fill="#FB6D3A"/>
<path d="M11.2952 18.1099L11.5149 17.8902C11.5498 17.8554 11.5774 17.814 11.5962 17.7685C11.6151 17.723 11.6248 17.6743 11.6248 17.625C11.6248 17.5758 11.6151 17.527 11.5962 17.4815C11.5774 17.436 11.5498 17.3947 11.5149 17.3598C11.4801 17.325 11.4388 17.2974 11.3933 17.2785C11.3478 17.2597 11.299 17.25 11.2498 17.25C11.2005 17.25 11.1518 17.2597 11.1063 17.2785C11.0608 17.2974 11.0194 17.325 10.9846 17.3598L10.7649 17.5795C10.4957 17.8488 10.1305 18 9.74974 18C9.36899 18 9.00383 17.8488 8.73459 17.5795L8.51494 17.3599C8.44461 17.2896 8.34922 17.25 8.24977 17.25C8.15031 17.25 8.05492 17.2896 7.98459 17.3599C7.91427 17.4302 7.87476 17.5256 7.87476 17.6251C7.87476 17.7245 7.91427 17.8199 7.98459 17.8902L8.20425 18.1099C8.61414 18.5198 9.17007 18.75 9.74974 18.75C10.3294 18.75 10.8853 18.5198 11.2952 18.1099Z" fill="#FB6D3A"/>
</svg>
